<svg width="204" height="61" viewBox="0 0 204 61" fill="none" xmlns="http://www.w3.org/2000/svg">
<g clip-path="url(#clip0_10_16630)">
<path fill-rule="evenodd" clip-rule="evenodd" d="M16.2545 -4.76968e-05H187.755V-0.000244141C188.367 -0.000244141 188.99 -0.000244141 189.603 0.00277807C190.027 0.00518337 190.46 0.0115255 190.887 0.0177855C190.983 0.0191944 191.079 0.0205992 191.174 0.021954C192.317 0.0332084 193.457 0.122507 194.584 0.289057C195.715 0.459692 196.812 0.779029 197.837 1.23652C199.887 2.16994 201.556 3.64957 202.608 5.46732C203.122 6.37305 203.478 7.34284 203.664 8.34343C203.854 9.34348 203.96 10.3547 203.98 11.3687C203.987 11.832 203.987 12.2969 203.987 12.7602C204 13.3077 204 13.8567 204 14.4101V46.0355C204 46.5934 204 47.1394 203.987 47.6883C203.987 48.1575 203.987 48.6121 203.98 49.0814C203.96 50.0954 203.854 51.1065 203.664 52.1065C203.479 53.1077 203.123 54.078 202.608 54.9841C202.085 55.8859 201.406 56.7091 200.594 57.4235C199.788 58.1441 198.857 58.7454 197.837 59.2046C196.812 59.6633 195.715 59.9846 194.584 60.1578C193.457 60.323 192.317 60.4123 191.174 60.425C190.655 60.4353 190.122 60.4412 189.603 60.4412C188.99 60.4442 188.367 60.4442 187.755 60.4442H16.2545C15.6294 60.4442 15.0117 60.4442 14.3882 60.4412C13.8663 60.4412 13.3485 60.4353 12.8216 60.425C11.6769 60.4116 10.535 60.3223 9.4054 60.1578C8.27744 59.9858 7.18505 59.6645 6.16483 59.2046C5.14339 58.7457 4.21172 58.1443 3.4054 57.4235C2.59163 56.7119 1.91331 55.8881 1.39681 54.9841C0.878142 54.0787 0.518824 53.1083 0.331323 52.1065C0.141519 51.1067 0.0393816 50.0953 0.0258273 49.0814C0.0150189 48.7608 0.010815 48.447 0.0065778 48.1308C0.00461297 47.9842 0.00264098 47.837 0 47.6883V12.7602C0.00267228 12.6117 0.00465961 12.463 0.00664765 12.3143C0.0108614 11.999 0.0150783 11.6835 0.0258273 11.3687C0.0393775 10.3548 0.141515 9.3434 0.331323 8.3435C0.519343 7.34232 0.87864 6.37245 1.39681 5.46738C1.91354 4.5605 2.59177 3.73335 3.4054 3.01774C4.21479 2.30011 5.14585 1.69915 6.16483 1.23666C7.18506 0.778045 8.27756 0.458622 9.4054 0.289193C10.5348 0.123374 11.6769 0.034106 12.8216 0.0221656C12.931 0.0206315 13.04 0.0190375 13.1487 0.0174475C13.5637 0.011379 13.9746 0.00536929 14.3882 0.00297452C15.0117 -4.76967e-05 15.6293 -4.76968e-05 16.2545 -4.76968e-05ZM12.8758 58.9141C13.391 58.9244 13.8977 58.9302 14.417 58.9302L187.736 58.9332L189.583 58.9302C190.091 58.9302 190.614 58.9244 191.113 58.9141C192.18 58.9027 193.245 58.8209 194.299 58.6693C195.288 58.5215 196.246 58.2433 197.142 57.844C198.025 57.4485 198.83 56.9302 199.527 56.309C200.224 55.7001 200.809 54.9981 201.258 54.2289C201.709 53.4397 202.019 52.5942 202.178 51.722C202.352 50.802 202.449 49.872 202.469 48.9396C202.476 48.4793 202.476 48.0321 202.476 47.5439C202.49 47.0074 202.49 46.4753 202.49 45.9299V14.5127C202.49 13.9725 202.49 13.4367 202.476 12.8737C202.476 12.4193 202.476 11.9626 202.471 11.5375C202.451 10.5881 202.352 9.64123 202.175 8.70451C202.014 7.84362 201.707 7.00909 201.263 6.22923C200.355 4.66966 198.915 3.39942 197.147 2.59653C196.249 2.19944 195.289 1.92227 194.299 1.77412C193.251 1.62275 192.193 1.54116 191.131 1.53005L189.575 1.51099H14.4179L12.8799 1.52932C11.8089 1.541 10.7404 1.62333 9.68336 1.7756C8.70292 1.9219 7.75301 2.19716 6.86547 2.59213C5.98253 2.99053 5.17602 3.50846 4.47534 4.12702C3.77387 4.73976 3.18959 5.44843 2.74515 6.22556C2.29391 7.01084 1.98155 7.85225 1.81888 8.72063C1.64407 9.64973 1.54975 10.5892 1.53676 11.5309C1.52679 11.8358 1.51172 12.8737 1.51172 12.8737V47.5513C1.51172 47.5513 1.52587 48.6054 1.53667 48.922C1.55025 49.8652 1.64511 50.8061 1.82045 51.7367C1.98282 52.6027 2.29493 53.4417 2.74593 54.2244C3.19202 55.002 3.77956 55.7102 4.48527 56.3207C5.18092 56.9386 5.98486 57.4539 6.8663 57.8468C7.75589 58.2431 8.7076 58.5203 9.69002 58.6693C10.7436 58.8201 11.8084 58.9019 12.8758 58.9141Z" fill="white"/>
<path d="M49.5603 30.6766C49.5766 29.4153 49.9116 28.1786 50.5342 27.0816C51.1568 25.9846 52.0468 25.063 53.1214 24.4023C52.4387 23.4274 51.5382 22.6251 50.4913 22.0591C49.4443 21.4931 48.2798 21.1791 47.0903 21.1418C44.5528 20.8755 42.0927 22.6603 40.7997 22.6603C39.4816 22.6603 37.4907 21.1683 35.3468 21.2124C33.9601 21.2572 32.6087 21.6604 31.4241 22.3828C30.2396 23.1052 29.2624 24.1222 28.5877 25.3345C25.6653 30.3943 27.8452 37.8306 30.6447 41.9206C32.0453 43.9233 33.6823 46.1605 35.8242 46.0811C37.9202 45.9942 38.703 44.7446 41.2331 44.7446C43.7396 44.7446 44.4741 46.0811 46.6595 46.0307C48.9086 45.9942 50.3256 44.019 51.6771 41.9973C52.6835 40.5703 53.4579 38.9931 53.9716 37.3242C52.665 36.7715 51.5499 35.8465 50.7654 34.6643C49.981 33.4822 49.5619 32.0953 49.5603 30.6766V30.6766Z" fill="white"/>
<path d="M45.433 18.452C46.6593 16.9798 47.2635 15.0876 47.1172 13.1772C45.2436 13.374 43.513 14.2694 42.2702 15.6851C41.6625 16.3767 41.1971 17.1813 40.9005 18.0528C40.604 18.9244 40.4821 19.8458 40.5419 20.7645C41.479 20.7742 42.4061 20.5711 43.2533 20.1705C44.1005 19.7699 44.8458 19.1823 45.433 18.452Z" fill="white"/>
<path d="M76.055 41.0111H68.9023L67.1846 46.0831H64.155L70.9299 27.3181H74.0776L80.8525 46.0831H77.7712L76.055 41.0111ZM69.6431 38.6707H75.3128L72.5179 30.4392H72.4396L69.6431 38.6707Z" fill="white"/>
<path d="M95.4837 39.2431C95.4837 43.4946 93.2082 46.2261 89.7743 46.2261C88.9044 46.2716 88.0393 46.0712 87.278 45.6479C86.5167 45.2246 85.89 44.5954 85.4697 43.8325H85.4047V50.6089H82.5964V32.4018H85.3147V34.6773H85.3664C85.806 33.918 86.4433 33.2921 87.2104 32.8662C87.9775 32.4403 88.8457 32.2303 89.7226 32.2586C93.1949 32.2586 95.4837 35.0034 95.4837 39.2431ZM92.5973 39.2431C92.5973 36.4732 91.1658 34.6522 88.9818 34.6522C86.8361 34.6522 85.3929 36.5116 85.3929 39.2431C85.3929 41.9997 86.8361 43.8458 88.9818 43.8458C91.1658 43.8458 92.5973 42.0381 92.5973 39.2431Z" fill="white"/>
<path d="M110.542 39.2431C110.542 43.4946 108.267 46.2261 104.833 46.2261C103.963 46.2716 103.098 46.0712 102.337 45.6479C101.575 45.2246 100.949 44.5954 100.528 43.8325H100.463V50.6089H97.655V32.4018H100.373V34.6773H100.425C100.865 33.918 101.502 33.2921 102.269 32.8662C103.036 32.4403 103.904 32.2303 104.781 32.2586C108.254 32.2586 110.542 35.0034 110.542 39.2431ZM107.656 39.2431C107.656 36.4732 106.224 34.6522 104.04 34.6522C101.895 34.6522 100.452 36.5116 100.452 39.2431C100.452 41.9997 101.895 43.8458 104.04 43.8458C106.224 43.8458 107.656 42.0381 107.656 39.2431H107.656Z" fill="white"/>
<path d="M120.494 40.8546C120.702 42.7155 122.509 43.9373 124.98 43.9373C127.347 43.9373 129.05 42.7154 129.05 41.0375C129.05 39.581 128.023 38.7089 125.591 38.1112L123.159 37.5254C119.713 36.6931 118.113 35.0816 118.113 32.4667C118.113 29.229 120.935 27.0051 124.941 27.0051C128.906 27.0051 131.625 29.229 131.716 32.4667H128.881C128.712 30.594 127.164 29.4636 124.901 29.4636C122.639 29.4636 121.091 30.6073 121.091 32.2719C121.091 33.5985 122.08 34.3792 124.499 34.9768L126.566 35.4844C130.416 36.3949 132.016 37.9415 132.016 40.6862C132.016 44.1969 129.219 46.3957 124.772 46.3957C120.61 46.3957 117.8 44.2486 117.619 40.8545L120.494 40.8546Z" fill="white"/>
<path d="M138.077 29.1641V32.4017H140.679V34.6256H138.077V42.1679C138.077 43.3396 138.598 43.8856 139.741 43.8856C140.05 43.8802 140.359 43.8585 140.665 43.8206V46.0312C140.151 46.1273 139.628 46.1708 139.105 46.1611C136.336 46.1611 135.255 45.1207 135.255 42.4674V34.6256H133.266V32.4017H135.255V29.1641H138.077Z" fill="white"/>
<path d="M142.185 39.2432C142.185 34.9386 144.721 32.2336 148.674 32.2336C152.641 32.2336 155.164 34.9385 155.164 39.2432C155.164 43.5596 152.654 46.2527 148.674 46.2527C144.695 46.2527 142.185 43.5596 142.185 39.2432ZM152.303 39.2432C152.303 36.2903 150.949 34.5475 148.674 34.5475C146.398 34.5475 145.047 36.3036 145.047 39.2432C145.047 42.2079 146.398 43.9374 148.674 43.9374C150.949 43.9374 152.303 42.2079 152.303 39.2432H152.303Z" fill="white"/>
<path d="M157.479 32.4019H160.158V34.7305H160.223C160.404 34.0032 160.83 33.3605 161.429 32.9104C162.028 32.4602 162.764 32.2301 163.513 32.2587C163.837 32.2576 164.16 32.2927 164.476 32.3635V34.9902C164.067 34.8654 163.641 34.8081 163.214 34.8205C162.806 34.804 162.399 34.8759 162.022 35.0314C161.644 35.1869 161.305 35.4222 161.027 35.7212C160.749 36.0203 160.539 36.3759 160.411 36.7638C160.283 37.1516 160.241 37.5625 160.287 37.9682V46.083H157.479L157.479 32.4019Z" fill="white"/>
<path d="M177.423 42.0647C177.045 44.5483 174.627 46.2527 171.532 46.2527C167.552 46.2527 165.082 43.5862 165.082 39.3081C165.082 35.0168 167.565 32.2336 171.414 32.2336C175.199 32.2336 177.579 34.8338 177.579 38.982V39.9441H167.917V40.1138C167.872 40.6173 167.935 41.1246 168.102 41.6018C168.268 42.0791 168.534 42.5155 168.882 42.882C169.23 43.2485 169.652 43.5368 170.12 43.7277C170.589 43.9185 171.092 44.0076 171.597 43.989C172.261 44.0512 172.927 43.8975 173.496 43.5508C174.065 43.2041 174.507 42.6829 174.756 42.0647L177.423 42.0647ZM167.93 37.9815H174.77C174.795 37.5287 174.726 37.0757 174.568 36.6508C174.41 36.2258 174.166 35.8382 173.851 35.5121C173.535 35.1861 173.156 34.9287 172.737 34.7561C172.318 34.5835 171.867 34.4994 171.414 34.5092C170.957 34.5064 170.503 34.5943 170.08 34.7677C169.657 34.9411 169.272 35.1966 168.948 35.5194C168.625 35.8422 168.368 36.226 168.193 36.6486C168.018 37.0711 167.929 37.5242 167.93 37.9815V37.9815Z" fill="white"/>
<path d="M69.2908 13.1936C69.8795 13.1513 70.4703 13.2403 71.0205 13.454C71.5708 13.6677 72.0667 14.0009 72.4725 14.4295C72.8784 14.8581 73.1841 15.3714 73.3675 15.9324C73.551 16.4935 73.6076 17.0882 73.5334 17.6738C73.5334 20.5543 71.9766 22.2101 69.2908 22.2101H66.0339V13.1936H69.2908ZM67.4344 20.935H69.1344C69.5551 20.9601 69.9761 20.8912 70.3668 20.7331C70.7574 20.575 71.108 20.3318 71.3928 20.0212C71.6776 19.7105 71.8896 19.3403 72.0133 18.9374C72.137 18.5345 72.1693 18.1091 72.1079 17.6922C72.1649 17.2769 72.1293 16.8541 72.0037 16.4542C71.8781 16.0542 71.6656 15.687 71.3814 15.3788C71.0972 15.0707 70.7484 14.8292 70.3599 14.6717C69.9714 14.5142 69.5529 14.4445 69.1344 14.4678H67.4344V20.935Z" fill="white"/>
<path d="M75.1153 18.8047C75.0725 18.3575 75.1237 17.9064 75.2655 17.4801C75.4073 17.0539 75.6366 16.662 75.9387 16.3296C76.2408 15.9972 76.6091 15.7316 77.0199 15.5498C77.4307 15.3681 77.875 15.2742 78.3242 15.2742C78.7734 15.2742 79.2176 15.3681 79.6284 15.5498C80.0392 15.7316 80.4075 15.9972 80.7096 16.3296C81.0118 16.662 81.2411 17.0539 81.3829 17.4801C81.5247 17.9064 81.5759 18.3575 81.5331 18.8047C81.5767 19.2523 81.5261 19.7041 81.3847 20.131C81.2433 20.558 81.0141 20.9506 80.7119 21.2837C80.4097 21.6167 80.0411 21.8829 79.6299 22.065C79.2187 22.2472 78.7739 22.3413 78.3242 22.3413C77.8744 22.3413 77.4297 22.2472 77.0185 22.065C76.6072 21.8829 76.2387 21.6167 75.9365 21.2837C75.6343 20.9506 75.4051 20.558 75.2637 20.131C75.1222 19.7041 75.0717 19.2523 75.1153 18.8047V18.8047ZM80.1518 18.8047C80.1518 17.3297 79.4892 16.4672 78.3264 16.4672C77.1591 16.4672 76.5025 17.3297 76.5025 18.8047C76.5025 20.2915 77.1592 21.1474 78.3264 21.1474C79.4892 21.1474 80.1518 20.2856 80.1518 18.8047H80.1518Z" fill="white"/>
<path d="M90.0641 22.2099H88.6711L87.2648 17.1985H87.1585L85.7581 22.2099H84.3783L82.5027 15.4055H83.8648L85.0837 20.5977H85.184L86.583 15.4055H87.8713L89.2702 20.5977H89.3765L90.5895 15.4055H91.9324L90.0641 22.2099Z" fill="white"/>
<path d="M93.5095 15.4056H94.8022V16.4866H94.9026C95.0728 16.0983 95.3599 15.7729 95.7239 15.5556C96.0879 15.3383 96.5106 15.2399 96.9331 15.2743C97.2642 15.2494 97.5967 15.2993 97.9058 15.4203C98.215 15.5414 98.493 15.7304 98.7192 15.9735C98.9454 16.2165 99.114 16.5074 99.2125 16.8244C99.311 17.1415 99.3369 17.4766 99.2883 17.8051V22.21H97.9455V18.1423C97.9455 17.0488 97.4703 16.505 96.4771 16.505C96.2524 16.4945 96.028 16.5328 95.8193 16.6172C95.6107 16.7015 95.4228 16.83 95.2685 16.9938C95.1142 17.1576 94.9971 17.3528 94.9253 17.5661C94.8534 17.7793 94.8286 18.0056 94.8524 18.2294V22.2101H93.5095L93.5095 15.4056Z" fill="white"/>
<path d="M101.428 12.7493H102.771V22.2099H101.428V12.7493Z" fill="white"/>
<path d="M104.638 18.8048C104.595 18.3576 104.647 17.9064 104.788 17.4802C104.93 17.0539 105.16 16.662 105.462 16.3296C105.764 15.9972 106.132 15.7316 106.543 15.5498C106.954 15.3681 107.398 15.2742 107.847 15.2742C108.297 15.2742 108.741 15.3681 109.152 15.5498C109.563 15.7316 109.931 15.9972 110.233 16.3296C110.535 16.662 110.765 17.0539 110.906 17.4802C111.048 17.9064 111.099 18.3576 111.057 18.8048C111.1 19.2525 111.05 19.7043 110.908 20.1312C110.767 20.5581 110.537 20.9507 110.235 21.2838C109.933 21.6168 109.564 21.883 109.153 22.0651C108.742 22.2473 108.297 22.3413 107.847 22.3413C107.398 22.3413 106.953 22.2473 106.542 22.0651C106.13 21.883 105.762 21.6168 105.46 21.2838C105.157 20.9507 104.928 20.5581 104.787 20.1312C104.645 19.7043 104.595 19.2525 104.638 18.8048V18.8048ZM109.675 18.8048C109.675 17.3299 109.012 16.4673 107.849 16.4673C106.682 16.4673 106.025 17.3299 106.025 18.8048C106.025 20.2916 106.682 21.1475 107.849 21.1475C109.012 21.1475 109.675 20.2857 109.675 18.8048H109.675Z" fill="white"/>
<path d="M112.47 20.2856C112.47 19.0608 113.382 18.3547 115.001 18.2543L116.844 18.1481V17.5608C116.844 16.8421 116.369 16.4363 115.451 16.4363C114.701 16.4363 114.182 16.7115 114.033 17.1926H112.733C112.87 16.0238 113.97 15.2742 115.513 15.2742C117.219 15.2742 118.181 16.1234 118.181 17.5608V22.2099H116.888V21.2537H116.782C116.567 21.5967 116.264 21.8763 115.905 22.064C115.546 22.2517 115.143 22.3408 114.738 22.322C114.453 22.3517 114.164 22.3213 113.891 22.2326C113.618 22.1439 113.366 21.9989 113.152 21.8071C112.939 21.6152 112.768 21.3807 112.65 21.1186C112.533 20.8566 112.471 20.5728 112.47 20.2856V20.2856ZM116.844 19.7042V19.1353L115.183 19.2416C114.245 19.3043 113.82 19.623 113.82 20.2229C113.82 20.8353 114.352 21.1917 115.082 21.1917C115.296 21.2133 115.512 21.1917 115.718 21.1281C115.924 21.0645 116.114 20.9602 116.279 20.8215C116.443 20.6827 116.578 20.5122 116.675 20.3203C116.772 20.1284 116.83 19.9188 116.844 19.7042V19.7042Z" fill="white"/>
<path d="M119.946 18.8048C119.946 16.6547 121.052 15.2926 122.771 15.2926C123.196 15.2731 123.618 15.3749 123.988 15.5863C124.357 15.7977 124.659 16.1099 124.857 16.4864H124.958V12.7493H126.301V22.2099H125.014V21.1349H124.908C124.694 21.5089 124.381 21.8172 124.005 22.0265C123.628 22.2357 123.201 22.338 122.771 22.3221C121.04 22.3222 119.946 20.9601 119.946 18.8048ZM121.333 18.8048C121.333 20.248 122.014 21.1165 123.152 21.1165C124.283 21.1165 124.983 20.2355 124.983 18.8107C124.983 17.3926 124.276 16.499 123.152 16.499C122.021 16.499 121.333 17.3734 121.333 18.8048H121.333Z" fill="white"/>
<path d="M131.856 18.8047C131.814 18.3575 131.865 17.9064 132.007 17.4801C132.148 17.0539 132.378 16.662 132.68 16.3296C132.982 15.9972 133.35 15.7316 133.761 15.5498C134.172 15.3681 134.616 15.2742 135.065 15.2742C135.515 15.2742 135.959 15.3681 136.37 15.5498C136.78 15.7316 137.149 15.9972 137.451 16.3296C137.753 16.662 137.982 17.0539 138.124 17.4801C138.266 17.9064 138.317 18.3575 138.274 18.8047C138.318 19.2523 138.267 19.7041 138.126 20.131C137.984 20.558 137.755 20.9506 137.453 21.2837C137.151 21.6167 136.782 21.8829 136.371 22.065C135.96 22.2472 135.515 22.3413 135.065 22.3413C134.616 22.3413 134.171 22.2472 133.76 22.065C133.348 21.8829 132.98 21.6167 132.678 21.2837C132.375 20.9506 132.146 20.558 132.005 20.131C131.863 19.7041 131.813 19.2523 131.856 18.8047V18.8047ZM136.893 18.8047C136.893 17.3297 136.23 16.4672 135.068 16.4672C133.9 16.4672 133.244 17.3297 133.244 18.8047C133.244 20.2915 133.9 21.1474 135.068 21.1474C136.23 21.1474 136.893 20.2856 136.893 18.8047Z" fill="white"/>
<path d="M140.076 15.4056H141.369V16.4866H141.469C141.639 16.0983 141.927 15.7729 142.291 15.5556C142.655 15.3383 143.077 15.2399 143.5 15.2743C143.831 15.2494 144.163 15.2993 144.472 15.4203C144.782 15.5414 145.06 15.7304 145.286 15.9735C145.512 16.2165 145.681 16.5074 145.779 16.8244C145.878 17.1415 145.904 17.4766 145.855 17.8051V22.21H144.512V18.1423C144.512 17.0488 144.037 16.505 143.044 16.505C142.819 16.4945 142.595 16.5328 142.386 16.6172C142.177 16.7015 141.989 16.83 141.835 16.9938C141.681 17.1576 141.564 17.3528 141.492 17.5661C141.42 17.7793 141.395 18.0056 141.419 18.2294V22.2101H140.076V15.4056Z" fill="white"/>
<path d="M153.443 13.7114V15.4365H154.917V16.5676H153.443V20.0665C153.443 20.7793 153.737 21.0914 154.405 21.0914C154.576 21.0908 154.747 21.0805 154.917 21.0604V22.179C154.676 22.2221 154.432 22.245 154.187 22.2476C152.693 22.2476 152.099 21.7222 152.099 20.4103V16.5676H151.018V15.4364H152.099V13.7114H153.443Z" fill="white"/>
<path d="M156.752 12.7493H158.083V16.499H158.189C158.368 16.1072 158.663 15.7799 159.034 15.5617C159.405 15.3436 159.835 15.2453 160.264 15.2801C160.593 15.2622 160.922 15.3172 161.228 15.4411C161.534 15.5651 161.808 15.755 162.032 15.9973C162.256 16.2396 162.424 16.5283 162.523 16.8428C162.622 17.1573 162.651 17.4899 162.607 17.8168V22.21H161.263V18.1481C161.263 17.0612 160.757 16.5108 159.808 16.5108C159.577 16.4919 159.345 16.5236 159.128 16.6038C158.91 16.6839 158.713 16.8106 158.55 16.9749C158.387 17.1392 158.262 17.3372 158.183 17.555C158.104 17.7728 158.074 18.0052 158.095 18.2359V22.2099H156.752L156.752 12.7493Z" fill="white"/>
<path d="M170.437 20.3728C170.254 20.9947 169.859 21.5326 169.32 21.8925C168.781 22.2524 168.133 22.4113 167.488 22.3414C167.04 22.3532 166.595 22.2673 166.183 22.0897C165.771 21.9121 165.403 21.6471 165.104 21.3129C164.805 20.9787 164.582 20.5835 164.451 20.1546C164.32 19.7257 164.284 19.2735 164.345 18.8292C164.285 18.3836 164.322 17.9304 164.453 17.5002C164.584 17.0701 164.805 16.673 165.103 16.3359C165.4 15.9988 165.767 15.7296 166.177 15.5464C166.588 15.3633 167.033 15.2705 167.482 15.2743C169.376 15.2743 170.518 16.5678 170.518 18.7045V19.1731H165.713V19.2483C165.692 19.498 165.724 19.7494 165.805 19.9863C165.887 20.2231 166.017 20.4403 166.188 20.6238C166.359 20.8073 166.566 20.9532 166.796 21.052C167.026 21.1508 167.275 21.2005 167.525 21.1977C167.847 21.2362 168.172 21.1784 168.46 21.0315C168.748 20.8846 168.987 20.6553 169.144 20.3728L170.437 20.3728ZM165.713 18.1799H169.15C169.167 17.9516 169.136 17.7222 169.059 17.5065C168.982 17.2908 168.861 17.0937 168.703 16.9277C168.545 16.7617 168.354 16.6305 168.143 16.5426C167.932 16.4547 167.704 16.412 167.475 16.4172C167.243 16.4143 167.012 16.4579 166.797 16.5455C166.582 16.633 166.387 16.7628 166.222 16.927C166.058 17.0913 165.929 17.2868 165.841 17.502C165.754 17.7172 165.71 17.9477 165.713 18.1799H165.713Z" fill="white"/>
</g>
<defs>
<clipPath id="clip0_10_16630">
<rect width="204" height="60.4444" fill="white"/>
</clipPath>
</defs>
</svg>
