<svg width="204" height="61" viewBox="0 0 204 61" fill="none" xmlns="http://www.w3.org/2000/svg">
<g clip-path="url(#clip0_10_16667)">
<path fill-rule="evenodd" clip-rule="evenodd" d="M16.2545 0.444288H187.755V0.444092C188.367 0.444092 188.99 0.444092 189.603 0.447114C190.027 0.449519 190.46 0.455861 190.887 0.462121C190.983 0.46353 191.079 0.464935 191.174 0.46629C192.317 0.477544 193.457 0.566843 194.584 0.733393C195.715 0.904028 196.812 1.22337 197.837 1.68086C199.887 2.61427 201.556 4.09391 202.608 5.91165C203.122 6.81738 203.478 7.78718 203.664 8.78777C203.854 9.78781 203.96 10.799 203.98 11.813C203.987 12.2764 203.987 12.7412 203.987 13.2046C204 13.7521 204 14.301 204 14.8544V46.4798C204 47.0377 204 47.5837 203.987 48.1327C203.987 48.6019 203.987 49.0564 203.98 49.5258C203.96 50.5397 203.854 51.5509 203.664 52.5509C203.479 53.552 203.123 54.5224 202.608 55.4285C202.085 56.3302 201.406 57.1534 200.594 57.8678C199.788 58.5884 198.857 59.1898 197.837 59.649C196.812 60.1077 195.715 60.4289 194.584 60.6022C193.457 60.7674 192.317 60.8567 191.174 60.8693C190.655 60.8796 190.122 60.8855 189.603 60.8855C188.99 60.8885 188.367 60.8885 187.755 60.8885H16.2545C15.6294 60.8885 15.0117 60.8885 14.3882 60.8855C13.8663 60.8855 13.3485 60.8796 12.8216 60.8693C11.6769 60.856 10.535 60.7667 9.4054 60.6022C8.27744 60.4301 7.18505 60.1088 6.16483 59.649C5.14339 59.19 4.21172 58.5886 3.4054 57.8678C2.59163 57.1562 1.91331 56.3324 1.39681 55.4285C0.878142 54.523 0.518824 53.5526 0.331323 52.5509C0.141519 51.551 0.0393816 50.5396 0.0258273 49.5258C0.0150189 49.2051 0.010815 48.8914 0.0065778 48.5751C0.00461297 48.4285 0.00264098 48.2813 0 48.1327V13.2046C0.00267228 13.056 0.00465961 12.9074 0.00664765 12.7586C0.0108614 12.4434 0.0150783 12.1279 0.0258273 11.8131C0.0393775 10.7992 0.141515 9.78774 0.331323 8.78783C0.519343 7.78666 0.87864 6.81679 1.39681 5.91171C1.91354 5.00483 2.59177 4.17768 3.4054 3.46207C4.21479 2.74444 5.14585 2.14348 6.16483 1.68099C7.18506 1.22238 8.27756 0.902958 9.4054 0.733529C10.5348 0.56771 11.6769 0.478442 12.8216 0.466502C12.931 0.464967 13.04 0.463373 13.1487 0.461783C13.5637 0.455715 13.9746 0.449705 14.3882 0.44731C15.0117 0.444288 15.6293 0.444288 16.2545 0.444288ZM12.8758 59.3585C13.391 59.3687 13.8977 59.3746 14.417 59.3746L187.736 59.3776L189.583 59.3746C190.091 59.3746 190.614 59.3687 191.113 59.3585C192.18 59.3471 193.245 59.2652 194.299 59.1137C195.288 58.9659 196.246 58.6876 197.142 58.2883C198.025 57.8928 198.83 57.3746 199.527 56.7534C200.224 56.1445 200.809 55.4425 201.258 54.6733C201.709 53.8841 202.019 53.0386 202.178 52.1663C202.352 51.2464 202.449 50.3164 202.469 49.3839C202.476 48.9237 202.476 48.4765 202.476 47.9883C202.49 47.4518 202.49 46.9196 202.49 46.3743V14.9571C202.49 14.4169 202.49 13.881 202.476 13.3181C202.476 12.8637 202.476 12.407 202.471 11.9819C202.451 11.0325 202.352 10.0856 202.175 9.14888C202.014 8.28799 201.707 7.45345 201.263 6.67359C200.355 5.11403 198.915 3.84379 197.147 3.0409C196.249 2.64381 195.289 2.36663 194.299 2.21849C193.251 2.06711 192.193 1.98552 191.131 1.97442L189.575 1.95535H14.4179L12.8799 1.97368C11.8089 1.98537 10.7404 2.06769 9.68336 2.21996C8.70292 2.36627 7.75301 2.64152 6.86547 3.0365C5.98253 3.4349 5.17602 3.95282 4.47534 4.57139C3.77387 5.18413 3.18959 5.8928 2.74515 6.66993C2.29391 7.45521 1.98155 8.29661 1.81888 9.165C1.64407 10.0941 1.54975 11.0336 1.53676 11.9753C1.52679 12.2802 1.51172 13.3181 1.51172 13.3181V47.9957C1.51172 47.9957 1.52587 49.0498 1.53667 49.3664C1.55025 50.3096 1.64511 51.2505 1.82045 52.181C1.98282 53.0471 2.29493 53.886 2.74593 54.6688C3.19202 55.4464 3.77956 56.1546 4.48527 56.7651C5.18092 57.3829 5.98486 57.8982 6.8663 58.2912C7.75589 58.6874 8.7076 58.9646 9.69002 59.1137C10.7436 59.2644 11.8084 59.3463 12.8758 59.3585Z" fill="white"/>
<path d="M101.908 33.1814C98.357 33.1814 95.4626 35.9127 95.4626 39.6746C95.4626 43.4135 98.357 46.1677 101.908 46.1677C105.461 46.1677 108.355 43.4135 108.355 39.6746C108.354 35.9127 105.459 33.1814 101.908 33.1814ZM101.908 43.612C99.962 43.612 98.2845 41.9891 98.2845 39.6761C98.2845 37.3387 99.9635 35.7402 101.908 35.7402C103.854 35.7402 105.532 37.3387 105.532 39.6761C105.532 41.9875 103.854 43.612 101.908 43.612ZM87.8453 33.1814C84.2941 33.1814 81.3997 35.9127 81.3997 39.6746C81.3997 43.4135 84.2941 46.1677 87.8453 46.1677C91.398 46.1677 94.2924 43.4135 94.2924 39.6746C94.2924 35.9127 91.398 33.1814 87.8453 33.1814ZM87.8453 43.612C85.8991 43.612 84.2217 41.9891 84.2217 39.6761C84.2217 37.3387 85.9006 35.7402 87.8453 35.7402C89.7915 35.7402 91.469 37.3387 91.469 39.6761C91.4705 41.9875 89.7915 43.612 87.8453 43.612ZM71.1191 35.1753V37.9295H77.6387C77.4439 39.4791 76.9336 40.6104 76.1545 41.3967C75.2063 42.3555 73.7221 43.4135 71.1191 43.4135C67.1059 43.4135 63.9684 40.1417 63.9684 36.0837C63.9684 32.0257 67.1059 28.754 71.1191 28.754C73.2842 28.754 74.8651 29.615 76.0322 30.7219L77.9542 28.7784C76.3236 27.2043 74.1599 25.9998 71.1191 25.9998C65.6217 25.9998 61 30.5249 61 36.0837C61 41.6425 65.6217 46.1677 71.1191 46.1677C74.086 46.1677 76.3251 45.183 78.075 43.3387C79.8748 41.5188 80.4349 38.9601 80.4349 36.8944C80.4349 36.2562 80.3866 35.6654 80.2885 35.1738H71.1191V35.1753ZM139.528 37.3143C138.993 35.8639 137.363 33.1814 134.03 33.1814C130.722 33.1814 127.973 35.8135 127.973 39.6746C127.973 43.3143 130.698 46.1677 134.346 46.1677C137.289 46.1677 138.992 44.3478 139.698 43.2898L137.509 41.8135C136.78 42.8959 135.782 43.6089 134.346 43.6089C132.912 43.6089 131.889 42.9448 131.233 41.641L139.819 38.0501L139.528 37.3143ZM130.771 39.4791C130.698 36.9692 132.693 35.6914 134.129 35.6914C135.247 35.6914 136.196 36.2578 136.513 37.0685L130.771 39.4791ZM123.791 45.7753H126.611V26.6898H123.791V45.7753ZM119.167 34.6333H119.071C118.438 33.87 117.221 33.1814 115.69 33.1814C112.479 33.1814 109.536 36.0349 109.536 39.7005C109.536 43.3402 112.479 46.1692 115.69 46.1692C117.223 46.1692 118.438 45.4807 119.071 44.6944H119.167V45.6288C119.167 48.1127 117.854 49.441 115.739 49.441C114.011 49.441 112.941 48.1875 112.503 47.1295L110.046 48.1631C110.751 49.8837 112.624 51.9998 115.739 51.9998C119.047 51.9998 121.844 50.0318 121.844 45.2349V33.5769H119.169V34.6333H119.167ZM115.933 43.612C113.987 43.612 112.358 41.9631 112.358 39.7005C112.358 37.412 113.987 35.7402 115.933 35.7402C117.854 35.7402 119.362 37.412 119.362 39.7005C119.362 41.9631 117.854 43.612 115.933 43.612ZM152.745 26.6898H145.995V45.7753H148.811V38.5448H152.744C155.866 38.5448 158.937 36.2593 158.937 32.6181C158.937 28.9769 155.868 26.6898 152.745 26.6898ZM152.818 35.8883H148.811V29.3463H152.818C154.924 29.3463 156.12 31.1097 156.12 32.6181C156.12 34.0959 154.924 35.8883 152.818 35.8883ZM170.229 33.1478C168.19 33.1478 166.077 34.0562 165.203 36.07L167.703 37.1249C168.238 36.07 169.234 35.7249 170.278 35.7249C171.735 35.7249 173.216 36.6089 173.24 38.1799V38.3769C172.73 38.0822 171.637 37.641 170.302 37.641C167.607 37.641 164.862 39.1387 164.862 41.9372C164.862 44.4914 167.072 46.1356 169.548 46.1356C171.442 46.1356 172.487 45.2761 173.142 44.2685H173.239V45.7417H175.959V38.4242C175.961 35.0379 173.457 33.1478 170.229 33.1478ZM169.888 43.6074C168.967 43.6074 167.679 43.1402 167.679 41.986C167.679 40.5127 169.283 39.9478 170.667 39.9478C171.904 39.9478 172.488 40.2181 173.24 40.586C173.021 42.3555 171.516 43.6074 169.888 43.6074ZM185.867 33.5646L182.637 41.8395H182.541L179.189 33.5646H176.154L181.18 45.1295L178.315 51.5631H181.253L189 33.5646H185.867ZM160.492 45.7753H163.308V26.6898H160.492V45.7753Z" fill="white"/>
<path d="M71.0565 15.8493C71.0565 17.0523 70.6863 18.0099 69.9443 18.7248C69.1022 19.5747 68.0034 19.9997 66.6537 19.9997C65.3607 19.9997 64.2604 19.569 63.3571 18.7076C62.4524 17.8448 62 16.7767 62 15.5018C62 14.2256 62.4524 13.1574 63.3571 12.2961C64.2604 11.4333 65.3607 11.0026 66.6537 11.0026C67.2957 11.0026 67.9093 11.1232 68.4916 11.3629C69.0753 11.6041 69.5426 11.9242 69.892 12.3248L69.1052 13.0828C68.5125 12.4009 67.6958 12.0606 66.6522 12.0606C65.7086 12.0606 64.8934 12.3793 64.2052 13.0168C63.5169 13.6542 63.1735 14.4825 63.1735 15.5004C63.1735 16.5183 63.5169 17.3466 64.2052 17.9841C64.8934 18.6215 65.7086 18.9402 66.6522 18.9402C67.6525 18.9402 68.4871 18.62 69.1545 17.9783C69.5874 17.5605 69.8383 16.9791 69.9054 16.234H66.6522V15.1989H70.9924C71.0371 15.4243 71.0565 15.6411 71.0565 15.8493Z" fill="white"/>
<path d="M77.9394 12.2516H73.8606V14.9822H77.5393V16.0173H73.8606V18.7479H77.9394V19.8074H72.7094V11.1936H77.9394V12.2516Z" fill="white"/>
<path d="M82.793 19.8074H81.6419V12.2516H79.1396V11.1936H85.2953V12.2516H82.793V19.8074Z" fill="white"/>
<path d="M89.7489 19.8074V11.1936H90.8999V19.8074H89.7489Z" fill="white"/>
<path d="M96.0048 19.8074H94.8537V12.2516H92.3514V11.1936H98.507V12.2516H96.0048V19.8074Z" fill="white"/>
<path d="M110.16 18.6948C109.279 19.5648 108.184 19.9998 106.875 19.9998C105.566 19.9998 104.471 19.5648 103.592 18.6948C102.711 17.8248 102.272 16.7595 102.272 15.5005C102.272 14.2414 102.711 13.1762 103.592 12.3062C104.471 11.4362 105.566 10.9998 106.875 10.9998C108.177 10.9998 109.27 11.4376 110.154 12.3119C111.037 13.1862 111.479 14.2486 111.479 15.5005C111.479 16.7595 111.039 17.8248 110.16 18.6948ZM104.441 17.9726C105.104 18.6187 105.915 18.9403 106.875 18.9403C107.835 18.9403 108.647 18.6172 109.309 17.9726C109.971 17.3266 110.304 16.5025 110.304 15.5005C110.304 14.4984 109.971 13.6743 109.309 13.0283C108.647 12.3823 107.835 12.0607 106.875 12.0607C105.915 12.0607 105.104 12.3837 104.441 13.0283C103.78 13.6743 103.447 14.4984 103.447 15.5005C103.447 16.5025 103.78 17.3266 104.441 17.9726Z" fill="white"/>
<path d="M113.095 19.8074V11.1936H114.495L118.849 17.8937H118.898L118.849 16.2341V11.1936H120V19.8074H118.798L114.243 12.7814H114.194L114.243 14.441V19.8074H113.095Z" fill="white"/>
<path d="M71.0565 15.8493C71.0565 17.0523 70.6863 18.0099 69.9443 18.7248C69.1022 19.5747 68.0034 19.9997 66.6537 19.9997C65.3607 19.9997 64.2604 19.569 63.3571 18.7076C62.4524 17.8448 62 16.7767 62 15.5018C62 14.2256 62.4524 13.1574 63.3571 12.2961C64.2604 11.4333 65.3607 11.0026 66.6537 11.0026C67.2957 11.0026 67.9093 11.1232 68.4916 11.3629C69.0753 11.6041 69.5426 11.9242 69.892 12.3248L69.1052 13.0828C68.5125 12.4009 67.6958 12.0606 66.6522 12.0606C65.7086 12.0606 64.8934 12.3793 64.2052 13.0168C63.5169 13.6542 63.1735 14.4825 63.1735 15.5004C63.1735 16.5183 63.5169 17.3466 64.2052 17.9841C64.8934 18.6215 65.7086 18.9402 66.6522 18.9402C67.6525 18.9402 68.4871 18.62 69.1545 17.9783C69.5874 17.5605 69.8383 16.9791 69.9054 16.234H66.6522V15.1989H70.9924C71.0371 15.4243 71.0565 15.6411 71.0565 15.8493Z" stroke="white" stroke-width="0.2" stroke-miterlimit="10"/>
<path d="M77.9394 12.2516H73.8606V14.9822H77.5393V16.0173H73.8606V18.7479H77.9394V19.8074H72.7094V11.1936H77.9394V12.2516Z" stroke="white" stroke-width="0.2" stroke-miterlimit="10"/>
<path d="M82.793 19.8074H81.6419V12.2516H79.1396V11.1936H85.2953V12.2516H82.793V19.8074Z" stroke="white" stroke-width="0.2" stroke-miterlimit="10"/>
<path d="M89.7489 19.8074V11.1936H90.8999V19.8074H89.7489Z" stroke="white" stroke-width="0.2" stroke-miterlimit="10"/>
<path d="M96.0048 19.8074H94.8537V12.2516H92.3514V11.1936H98.507V12.2516H96.0048V19.8074Z" stroke="white" stroke-width="0.2" stroke-miterlimit="10"/>
<path d="M110.16 18.6948C109.279 19.5648 108.184 19.9998 106.875 19.9998C105.566 19.9998 104.471 19.5648 103.592 18.6948C102.711 17.8248 102.272 16.7595 102.272 15.5005C102.272 14.2414 102.711 13.1762 103.592 12.3062C104.471 11.4362 105.566 10.9998 106.875 10.9998C108.177 10.9998 109.27 11.4376 110.154 12.3119C111.037 13.1862 111.479 14.2486 111.479 15.5005C111.479 16.7595 111.039 17.8248 110.16 18.6948ZM104.441 17.9726C105.104 18.6187 105.915 18.9403 106.875 18.9403C107.835 18.9403 108.647 18.6172 109.309 17.9726C109.971 17.3266 110.304 16.5025 110.304 15.5005C110.304 14.4984 109.971 13.6743 109.309 13.0283C108.647 12.3823 107.835 12.0607 106.875 12.0607C105.915 12.0607 105.104 12.3837 104.441 13.0283C103.78 13.6743 103.447 14.4984 103.447 15.5005C103.447 16.5025 103.78 17.3266 104.441 17.9726Z" stroke="white" stroke-width="0.2" stroke-miterlimit="10"/>
<path d="M113.095 19.8074V11.1936H114.495L118.849 17.8937H118.898L118.849 16.2341V11.1936H120V19.8074H118.798L114.243 12.7814H114.194L114.243 14.441V19.8074H113.095Z" stroke="white" stroke-width="0.2" stroke-miterlimit="10"/>
<path fill-rule="evenodd" clip-rule="evenodd" d="M15.3946 12.4188C15.1424 12.8578 15 13.4314 15 14.1217V47.3486C15 48.0405 15.1426 48.6138 15.3951 49.0526L33.7104 30.7346L15.3946 12.4188ZM16.0854 49.7765C16.7793 50.1996 17.7487 50.1587 18.8176 49.5526L40.3134 37.3376L34.4175 31.4417L16.0854 49.7765ZM41.2162 36.8261L48.1157 32.9061C50.2145 31.7117 50.2145 29.7601 48.1157 28.5672L41.2132 24.6451L35.1246 30.7346L41.2162 36.8261ZM40.3115 24.1326L18.8176 11.9192C17.7487 11.3118 16.7792 11.2718 16.0853 11.6953L34.4175 30.0275L40.3115 24.1326Z" fill="white"/>
</g>
<defs>
<clipPath id="clip0_10_16667">
<rect width="204" height="60.4444" fill="white" transform="translate(0 0.444336)"/>
</clipPath>
</defs>
</svg>
